<?xml version="1.0" encoding="UTF-8" standalone="no"?>
<svg
   version="1.1"
   width="150"
   height="150"
   viewBox="-0.9 -0.9 1.8 1.8"
   id="svg579"
   sodipodi:docname="pll.svg"
   inkscape:version="1.2.2 (732a01da63, 2022-12-09)"
   xmlns:inkscape="http://www.inkscape.org/namespaces/inkscape"
   xmlns:sodipodi="http://sodipodi.sourceforge.net/DTD/sodipodi-0.dtd"
   xmlns="http://www.w3.org/2000/svg"
   xmlns:svg="http://www.w3.org/2000/svg">
  <defs
     id="defs583" />
  <sodipodi:namedview
     id="namedview581"
     pagecolor="#ffffff"
     bordercolor="#000000"
     borderopacity="0.25"
     inkscape:showpageshadow="2"
     inkscape:pageopacity="0.0"
     inkscape:pagecheckerboard="0"
     inkscape:deskcolor="#d1d1d1"
     showgrid="false"
     inkscape:zoom="5.5266667"
     inkscape:cx="74.90953"
     inkscape:cy="60.615199"
     inkscape:window-width="1920"
     inkscape:window-height="1009"
     inkscape:window-x="1272"
     inkscape:window-y="-8"
     inkscape:window-maximized="1"
     inkscape:current-layer="svg579" />
  <g
     style="stroke-width:0.1;stroke-linejoin:round;opacity:1"
     id="g521">
    <polygon
       fill="#000000"
       stroke="#000000"
       points="-4.9165444344952E-17,-0.71734170954349 0.70405037145575,-0.41272706360467 6.3108540577985E-17,-0.021725090572532 -0.70405037145575,-0.41272706360467"
       id="polygon515" />
    <polygon
       fill="#000000"
       stroke="#000000"
       points="6.3108540577985E-17,-0.021725090572532 0.70405037145575,-0.41272706360467 0.62948028357061,0.36901272915735 5.5589468959362E-17,0.81107056444244"
       id="polygon517" />
    <polygon
       fill="#000000"
       stroke="#000000"
       points="-0.70405037145575,-0.41272706360467 6.3108540577985E-17,-0.021725090572532 5.5589468959362E-17,0.81107056444244 -0.62948028357061,0.36901272915735"
       id="polygon519" />
  </g>
  <g
     style="opacity:1;stroke-opacity:0.5;stroke-width:0;stroke-linejoin:round"
     id="g577">
    <polygon
       fill="#888888"
       stroke="#000000"
       points="-4.9439549272153E-17,-0.74757064564692 0.19598754651203,-0.66277461469571 -1.6979580126642E-17,-0.57123720961754 -0.19598754651203,-0.66277461469571"
       id="polygon523" />
    <polygon
       fill="#888888"
       stroke="#000000"
       points="0.23200530924361,-0.64654708450724 0.44357407294753,-0.55500967942906 0.24823152717746,-0.45589370157761 0.03601776273158,-0.55500967942906"
       id="polygon525" />
    <polygon
       fill="#888888"
       stroke="#000000"
       points="0.48258385553552,-0.53743199405155 0.71166883865722,-0.4383160162001 0.51778341539206,-0.3306396536664 0.28724130976545,-0.43831601620009"
       id="polygon527" />
    <polygon
       fill="#888888"
       stroke="#000000"
       points="-0.23200530924361,-0.64654708450724 -0.03601776273158,-0.55500967942906 -0.24823152717746,-0.45589370157761 -0.44357407294753,-0.55500967942906"
       id="polygon529" />
    <polygon
       fill="#FFFF00"
       stroke="#000000"
       points="-1.1906711768916E-17,-0.53743199405155 0.21221376444588,-0.43831601620009 1.3125827139793E-17,-0.3306396536664 -0.21221376444588,-0.43831601620009"
       id="polygon531" />
    <polygon
       fill="#888888"
       stroke="#000000"
       points="0.25135344771691,-0.4192120352454 0.48189555334352,-0.31153567271171 0.27050899589682,-0.1941398664099 0.03913968327103,-0.31153567271171"
       id="polygon533" />
    <polygon
       fill="#888888"
       stroke="#000000"
       points="-0.48258385553552,-0.53743199405155 -0.28724130976545,-0.43831601620009 -0.51778341539206,-0.3306396536664 -0.71166883865722,-0.43831601620009"
       id="polygon535" />
    <polygon
       fill="#888888"
       stroke="#000000"
       points="-0.25135344771691,-0.4192120352454 -0.03913968327103,-0.31153567271171 -0.27050899589682,-0.1941398664099 -0.48189555334352,-0.31153567271171"
       id="polygon537" />
    <polygon
       fill="#888888"
       stroke="#000000"
       points="1.9219742927126E-17,-0.29069716027551 0.23136931262579,-0.1733013539737 6.3251582941518E-17,-0.044807908897155 -0.23136931262579,-0.1733013539737"
       id="polygon539" />
    <polygon
       fill="#888888"
       stroke="#000000"
       points="0.019572311898468,-0.01096266104553 0.25094162452426,-0.13945610612208 0.24139184674777,0.12672756322786 0.019572311898468,0.26171620101574"
       id="polygon541" />
    <polygon
       fill="#888888"
       stroke="#000000"
       points="0.28930534489087,-0.16171652284677 0.50069190233757,-0.27911232914857 0.48317508531013,-0.019324131300046 0.27975556711438,0.10446714650317"
       id="polygon543" />
    <polygon
       fill="#888888"
       stroke="#000000"
       points="0.53586287162127,-0.29952357725519 0.72974829488643,-0.40719993978888 0.70556381569579,-0.15366705164652 0.51834605459384,-0.039735379406663"
       id="polygon545" />
    <polygon
       fill="#0077FF"
       stroke="#000000"
       points="0.018796486168384,0.30740091161998 0.24061602101769,0.1724122738321 0.23182332941007,0.41749346528561 0.018796486168384,0.55752511994163"
       id="polygon547" />
    <polygon
       fill="#0077FF"
       stroke="#000000"
       points="0.27748498154717,0.14913168479738 0.48090449974292,0.025340406994164 0.46472097442439,0.26535483831193 0.26869228993956,0.39421287625089"
       id="polygon549" />
    <polygon
       fill="#0077FF"
       stroke="#000000"
       points="0.51482272047627,0.0039202514920256 0.70204048157822,-0.11001142074783 0.6796261786066,0.12496419825545 0.49863919515774,0.24393468280979"
       id="polygon551" />
    <polygon
       fill="#0077FF"
       stroke="#000000"
       points="0.018079821190449,0.59957070958542 0.23110666443214,0.4595390549294 0.22298446134887,0.68593152923737 0.018079821190449,0.82982754001392"
       id="polygon553" />
    <polygon
       fill="#0077FF"
       stroke="#000000"
       points="0.26659321028119,0.43546258559693 0.46262189476603,0.30660454765797 0.44762501691219,0.52902006212629 0.25847100719792,0.6618550599049"
       id="polygon555" />
    <polygon
       fill="#0077FF"
       stroke="#000000"
       points="0.49537315323635,0.28438159074811 0.67636013668521,0.16541110619376 0.65552852022793,0.38379496484358 0.4803762753825,0.50679710521643"
       id="polygon557" />
    <polygon
       fill="#888888"
       stroke="#000000"
       points="-0.73033661801848,-0.40664800069716 -0.53645119475332,-0.29897163816347 -0.51893437772588,-0.039183440314942 -0.70615213882784,-0.1531151125548"
       id="polygon559" />
    <polygon
       fill="#888888"
       stroke="#000000"
       points="-0.50139487638912,-0.27854802283962 -0.29000831894242,-0.16115221653782 -0.28045854116593,0.10503145281212 -0.48387805936169,-0.018759824991097"
       id="polygon561" />
    <polygon
       fill="#888888"
       stroke="#000000"
       points="-0.25178425197513,-0.13888300088285 -0.020414939349334,-0.010389555806295 -0.020414939349334,0.26228930625497 -0.24223447419864,0.12730066846709"
       id="polygon563" />
    <polygon
       fill="#FFA500"
       stroke="#000000"
       points="-0.70259025607703,-0.10956681966126 -0.51537249497507,0.0043648525785978 -0.49918896965654,0.24437928389636 -0.68017595310541,0.12540879934202"
       id="polygon565" />
    <polygon
       fill="#FFA500"
       stroke="#000000"
       points="-0.48155663212918,0.025787474064964 -0.27813711393343,0.14957875186818 -0.26934442232581,0.39465994332169 -0.46537310681065,0.26580190538273"
       id="polygon567" />
    <polygon
       fill="#FFA500"
       stroke="#000000"
       points="-0.24139184674777,0.17285724590871 -0.019572311898468,0.30784588369658 -0.019572311898468,0.55797009201823 -0.23259915514016,0.41793843736221"
       id="polygon569" />
    <polygon
       fill="#FFA500"
       stroke="#000000"
       points="-0.67687496656198,0.16576684053069 -0.49588798311312,0.28473732508503 -0.48089110525928,0.50715283955335 -0.6560433501047,0.38415069918051"
       id="polygon571" />
    <polygon
       fill="#FFA500"
       stroke="#000000"
       points="-0.46322848371637,0.30695545587912 -0.26719979923154,0.43581349381808 -0.25907759614827,0.66220596812605 -0.44823160586253,0.52937097034744"
       id="polygon573" />
    <polygon
       fill="#FFA500"
       stroke="#000000"
       points="-0.23182332941007,0.45988002752827 -0.018796486168384,0.59991168218429 -0.018796486168384,0.83016851261279 -0.2237011263268,0.68627250183624"
       id="polygon575" />
  </g>
  <path
     style="fill:#ffa500;fill-opacity:1;stroke-width:0.180941"
     d="m 43.244873,78.514225 c -4.528045,-2.767596 -8.288515,-5.0569 -8.356599,-5.087343 -0.102776,-0.04595 -1.630067,-21.359928 -1.535393,-21.427031 0.02532,-0.01794 15.868451,8.782353 17.037985,9.463993 0.346897,0.202183 0.375661,0.628171 0.75122,11.125305 0.21478,6.003289 0.378155,10.924522 0.363054,10.936071 -0.0151,0.01155 -3.732221,-2.243399 -8.260267,-5.010995 z"
     id="path847"
     transform="matrix(0.012,0,0,0.012,-0.9,-0.9)" />
  <path
     style="fill:#ffa500;fill-opacity:1;stroke-width:0.180941"
     d="m 23.884198,66.842942 c -6.956822,-4.254626 -7.519256,-4.635856 -7.647861,-5.183873 -0.19432,-0.828047 -1.984211,-20.060773 -1.876936,-20.168048 0.109068,-0.109068 15.857513,8.607791 15.858297,8.777663 0.0016,0.346359 1.266902,18.935606 1.360077,19.981618 0.05984,0.671743 0.0428,1.21317 -0.03787,1.203171 -0.08066,-0.01 -3.525733,-2.084737 -7.655709,-4.610531 z"
     id="path849"
     transform="matrix(0.012,0,0,0.012,-0.9,-0.9)" />
  <path
     style="fill:#ffa500;fill-opacity:1;stroke-width:0.180941"
     d="M 64.143546,91.169262 C 59.267189,88.185964 55.189913,85.68872 55.082933,85.619828 54.900992,85.502665 54.011962,63.901187 54.182079,63.731069 c 0.03728,-0.03728 4.349805,2.310498 9.583384,5.21729 l 9.515599,5.285075 v 11.194501 c 0,6.156977 -0.06107,11.187977 -0.135706,11.180003 -0.07464,-0.008 -4.125453,-2.455379 -9.00181,-5.438676 z"
     id="path851"
     transform="matrix(0.012,0,0,0.012,-0.9,-0.9)" />
  <path
     style="fill:#000000;fill-opacity:0;stroke-width:0.180941"
     d="M 64.143546,91.169262 C 59.267189,88.185964 55.189913,85.68872 55.082933,85.619828 54.900992,85.502665 54.011962,63.901187 54.182079,63.731069 c 0.03728,-0.03728 4.349805,2.310498 9.583384,5.21729 l 9.515599,5.285075 v 11.194501 c 0,6.156977 -0.06107,11.187977 -0.135706,11.180003 -0.07464,-0.008 -4.125453,-2.455379 -9.00181,-5.438676 z"
     id="path1076"
     transform="matrix(0.012,0,0,0.012,-0.9,-0.9)" />
  <path
     style="fill:#000000;fill-opacity:0;stroke-width:0.180941"
     d="m 76.718938,110.9358 v -10.28804 l 9.088781,-5.52943 c 4.998829,-3.041186 9.102841,-5.514285 9.120027,-5.495774 0.03674,0.03957 -0.682267,20.109134 -0.721424,20.137044 -0.02559,0.0182 -7.888758,5.17342 -14.366153,9.41862 l -3.121231,2.04562 z"
     id="path1216"
     transform="matrix(0.012,0,0,0.012,-0.9,-0.9)" />
  <path
     style="fill:#000000;fill-opacity:0;stroke-width:0.180941"
     d="m 76.762796,85.382824 0.04661,-11.283038 9.499397,-5.270079 c 5.224668,-2.898544 9.503837,-5.260833 9.509265,-5.249531 0.09567,0.19919 -0.833354,21.899479 -0.941571,21.993322 -0.08467,0.07342 -4.021554,2.4803 -8.748635,5.348617 -4.727081,2.868316 -8.778515,5.334061 -9.003187,5.479434 l -0.408495,0.264313 z"
     id="path1218"
     transform="matrix(0.012,0,0,0.012,-0.9,-0.9)" />
  <path
     style="fill:#888888;fill-opacity:1;stroke-width:0.180941"
     d="m 76.762796,85.382824 0.04661,-11.283038 9.499397,-5.270079 c 5.224668,-2.898544 9.503837,-5.260833 9.509265,-5.249531 0.09567,0.19919 -0.833354,21.899479 -0.941571,21.993322 -0.08467,0.07342 -4.021554,2.4803 -8.748635,5.348617 -4.727081,2.868316 -8.778515,5.334061 -9.003187,5.479434 l -0.408495,0.264313 z"
     id="path1220"
     transform="matrix(0.012,0,0,0.012,-0.9,-0.9)" />
  <path
     style="fill:#0077ff;fill-opacity:1;stroke-width:0.180941"
     d="m 76.762796,85.384073 0.04661,-11.28179 9.499397,-5.274162 c 5.224668,-2.900789 9.504662,-5.26364 9.511098,-5.250779 0.09727,0.194364 -0.833488,21.900786 -0.943169,21.995923 -0.0848,0.07355 -4.021789,2.480533 -8.74887,5.34885 -4.727081,2.868316 -8.778515,5.334061 -9.003187,5.479434 l -0.408495,0.264313 z"
     id="path1429"
     transform="matrix(0.012,0,0,0.012,-0.9,-0.9)" />
  <path
     style="fill:#0077ff;fill-opacity:1;stroke-width:0.180941"
     d="m 98.429073,83.187575 c -0.006,-0.488323 0.766248,-21.578469 0.790821,-21.597775 0.496639,-0.390208 17.180136,-9.4841 17.257476,-9.406759 0.13695,0.136948 -1.22141,20.954708 -1.37887,21.132133 -0.13799,0.155483 -16.463863,10.098578 -16.581167,10.098578 -0.04702,0 -0.08673,-0.10178 -0.08826,-0.226177 z"
     id="path1431"
     transform="matrix(0.012,0,0,0.012,-0.9,-0.9)" />
  <path
     style="fill:#0077ff;fill-opacity:1;stroke-width:0.180941"
     d="m 118.34274,70.994875 c 0.0311,-2.180178 1.42893,-20.754485 1.57274,-20.89829 0.21286,-0.212857 15.67887,-8.825828 15.74212,-8.76673 0.0499,0.04667 -1.93405,20.789254 -1.99278,20.834522 -0.022,0.01694 -3.29691,2.007454 -7.27761,4.423355 -3.9807,2.415899 -7.42083,4.512469 -7.64475,4.659042 -0.38977,0.255141 -0.4068,0.244404 -0.39972,-0.251899 z"
     id="path1433"
     transform="matrix(0.012,0,0,0.012,-0.9,-0.9)" />
  <path
     style="fill:#000000;fill-opacity:0;stroke-width:0.180941"
     d="m 43.789524,53.908802 c -4.626557,-2.57505 -8.432611,-4.745445 -8.457897,-4.8231 -0.02529,-0.07766 4.178697,-2.113009 9.342184,-4.52301 l 9.388158,-4.381819 8.614371,4.373641 c 4.737905,2.405503 8.614372,4.423904 8.614372,4.485337 0,0.156149 -18.60536,9.588881 -18.872025,9.567928 -0.119482,-0.0094 -4.002605,-2.123927 -8.629163,-4.698977 z"
     id="path1773"
     transform="matrix(0.012,0,0,0.012,-0.9,-0.9)" />
  <path
     style="fill:#000000;fill-opacity:0;stroke-width:0.180941"
     d="m 43.789524,53.908802 c -4.626557,-2.57505 -8.432611,-4.745445 -8.457897,-4.8231 -0.02529,-0.07766 4.178697,-2.113009 9.342184,-4.52301 l 9.388158,-4.381819 8.614371,4.373641 c 4.737905,2.405503 8.614372,4.423904 8.614372,4.485337 0,0.156149 -18.60536,9.588881 -18.872025,9.567928 -0.119482,-0.0094 -4.002605,-2.123927 -8.629163,-4.698977 z"
     id="path1775"
     transform="matrix(0.012,0,0,0.012,-0.9,-0.9)" />
  <path
     style="fill:#000000;fill-opacity:0;stroke-width:0.180941"
     d="m 23.757095,42.839991 -7.817091,-4.359997 9.349007,-4.040962 c 5.141954,-2.222529 9.417964,-4.040962 9.502244,-4.040962 0.08428,0 3.730048,1.81781 8.101703,4.039577 l 7.948465,4.039577 -9.375418,4.374175 c -5.15648,2.405795 -9.491608,4.368418 -9.633619,4.361382 -0.14201,-0.007 -3.775891,-1.974791 -8.075291,-4.37279 z"
     id="path1777"
     transform="matrix(0.012,0,0,0.012,-0.9,-0.9)" />
  <path
     style="fill:#000000;fill-opacity:0;stroke-width:0.180941"
     d="m 43.789524,53.908802 c -4.626557,-2.57505 -8.432611,-4.745445 -8.457897,-4.8231 -0.02529,-0.07766 4.178697,-2.113009 9.342184,-4.52301 l 9.388158,-4.381819 8.614371,4.373641 c 4.737905,2.405503 8.614372,4.423904 8.614372,4.485337 0,0.156149 -18.60536,9.588881 -18.872025,9.567928 -0.119482,-0.0094 -4.002605,-2.123927 -8.629163,-4.698977 z"
     id="path1779"
     transform="matrix(0.012,0,0,0.012,-0.9,-0.9)" />
  <path
     style="fill:#ffff00;fill-opacity:1;stroke-width:0.180941"
     d="m 65.612988,65.95287 c -5.06334,-2.822048 -9.279625,-5.204549 -9.369522,-5.294446 -0.09731,-0.09731 3.664764,-2.106834 9.296542,-4.965791 L 75,50.890291 l 9.37585,4.747978 c 5.156718,2.611387 9.386398,4.819847 9.399292,4.907689 C 93.799487,60.711848 75.319205,71.084481 75,71.084088 74.900483,71.083967 70.676327,68.774919 65.612988,65.95287 Z"
     id="path1781"
     transform="matrix(0.012,0,0,0.012,-0.9,-0.9)" />
  <path
     style="fill:#ffff00;fill-opacity:1;stroke-width:0.180941"
     d="m 43.789524,53.908802 c -4.626557,-2.57505 -8.432611,-4.745445 -8.457897,-4.8231 -0.02529,-0.07766 4.178697,-2.113009 9.342184,-4.52301 l 9.388158,-4.381819 8.614371,4.373641 c 4.737905,2.405503 8.614372,4.423904 8.614372,4.485337 0,0.156149 -18.60536,9.588881 -18.872025,9.567928 -0.119482,-0.0094 -4.002605,-2.123927 -8.629163,-4.698977 z"
     id="path1783"
     transform="matrix(0.012,0,0,0.012,-0.9,-0.9)" />
  <path
     style="fill:#ffff00;fill-opacity:1;stroke-width:0.180941"
     d="m 23.757095,42.839991 -7.817091,-4.359997 9.349007,-4.040962 c 5.141954,-2.222529 9.417964,-4.040962 9.502244,-4.040962 0.08428,0 3.730048,1.81781 8.101703,4.039577 l 7.948465,4.039577 -9.375418,4.374175 c -5.15648,2.405795 -9.491608,4.368418 -9.633619,4.361382 -0.14201,-0.007 -3.775891,-1.974791 -8.075291,-4.37279 z"
     id="path1785"
     transform="matrix(0.012,0,0,0.012,-0.9,-0.9)" />
  <path
     style="fill:#ffff00;fill-opacity:1;stroke-width:0.180941"
     d="M 46.366104,32.877722 C 42.061972,30.684891 38.54041,28.835597 38.54041,28.76818 c 0,-0.09327 16.637886,-7.385451 17.080975,-7.48638 0.234228,-0.05335 16.000488,7.40967 15.887529,7.520426 -0.145001,0.142173 -17.183862,8.122499 -17.264675,8.086089 -0.02884,-0.01299 -3.574004,-1.817762 -7.878135,-4.010593 z"
     id="path1787"
     transform="matrix(0.012,0,0,0.012,-0.9,-0.9)" />
  <path
     style="fill:#ffff00;fill-opacity:1;stroke-width:0.180941"
     d="m 67.005956,23.547487 c -4.396724,-2.051216 -7.960878,-3.762649 -7.920342,-3.803185 0.309005,-0.309006 15.949418,-6.888307 16.173127,-6.803394 0.845122,0.320786 15.503738,6.675878 15.613671,6.769147 0.0718,0.06092 -3.266555,1.690436 -7.418577,3.621146 -4.152021,1.93071 -7.752689,3.608344 -8.001483,3.728075 -0.41275,0.198636 -1.152209,-0.108811 -8.446396,-3.511789 z"
     id="path1789"
     transform="matrix(0.012,0,0,0.012,-0.9,-0.9)" />
  <path
     style="fill:#ffff00;fill-opacity:1;stroke-width:0.180941"
     d="m 87.12304,32.904974 c -4.677322,-2.191265 -8.559833,-4.038506 -8.627802,-4.10498 -0.125202,-0.122449 15.722594,-7.571092 15.961152,-7.501921 0.67158,0.194726 17.0032,7.373203 17.0032,7.473665 0,0.101143 -15.206009,7.917111 -15.726577,8.083544 -0.05816,0.01859 -3.932651,-1.759043 -8.609973,-3.950308 z"
     id="path1791"
     transform="matrix(0.012,0,0,0.012,-0.9,-0.9)" />
  <path
     style="fill:#ffff00;fill-opacity:1;stroke-width:0.180941"
     d="m 108.52657,42.843158 -9.356428,-4.370506 7.957478,-4.037291 c 4.37661,-2.22051 8.0283,-4.037291 8.11485,-4.037291 0.0866,0 4.36215,1.820107 9.50131,4.044683 l 9.34394,4.044683 -7.86729,4.369069 c -4.327,2.402987 -7.97307,4.366388 -8.10236,4.363113 -0.12929,-0.0033 -4.44547,-1.972682 -9.5915,-4.37646 z"
     id="path1793"
     transform="matrix(0.012,0,0,0.012,-0.9,-0.9)" />
  <path
     style="fill:#ffff00;fill-opacity:1;stroke-width:0.180941"
     d="m 87.982509,53.865786 c -5.100271,-2.600661 -9.273221,-4.773897 -9.273221,-4.829414 0,-0.05552 3.884709,-2.06972 8.632687,-4.476008 l 8.632687,-4.375068 9.370928,4.376874 c 5.15402,2.407281 9.37094,4.428474 9.37094,4.49154 0,0.163639 -16.981519,9.574288 -17.243526,9.555844 -0.119501,-0.0084 -4.390224,-2.143107 -9.490495,-4.743768 z"
     id="path1795"
     transform="matrix(0.012,0,0,0.012,-0.9,-0.9)" />
</svg>
